<?xml version="1.0" standalone="no"?>
<!DOCTYPE svg PUBLIC "-//W3C//DTD SVG 20010904//EN"
 "http://www.w3.org/TR/2001/REC-SVG-20010904/DTD/svg10.dtd">
<svg version="1.0" xmlns="http://www.w3.org/2000/svg"
 width="1300.000000pt" height="647.000000pt" viewBox="0 0 1300.000000 647.000000"
 preserveAspectRatio="xMidYMid meet">

<g transform="translate(0.000000,647.000000) scale(0.100000,-0.100000)"
fill="#000000" stroke="none">
<path d="M3640 6460 c0 -5 9 -15 20 -22 11 -7 20 -21 20 -30 0 -10 6 -18 13
-18 6 0 22 -18 35 -40 12 -22 28 -40 36 -40 7 0 32 -18 56 -40 24 -22 51 -40
61 -40 11 0 21 -10 25 -25 3 -14 10 -25 15 -25 12 0 44 -33 52 -53 3 -9 11
-17 17 -17 5 0 10 -9 10 -20 0 -13 7 -20 19 -20 10 0 21 -7 25 -15 3 -8 12
-15 21 -15 8 0 15 -6 15 -13 0 -15 54 -67 69 -67 6 0 11 -10 11 -21 0 -19 77
-109 94 -109 3 0 23 -18 43 -40 21 -22 43 -40 49 -40 6 0 17 -11 24 -25 7 -14
18 -25 24 -25 6 -1 22 -14 36 -30 13 -17 30 -30 37 -30 7 0 13 -5 13 -11 0 -5
4 -8 9 -4 6 3 18 -3 28 -14 10 -10 32 -26 48 -35 17 -9 44 -25 60 -36 50 -32
119 -67 145 -75 24 -7 56 -20 130 -52 19 -8 55 -19 80 -23 25 -5 79 -18 120
-29 41 -11 97 -21 124 -21 32 0 56 -6 68 -17 18 -16 18 -16 5 9 -7 15 -79 96
-159 180 -80 84 -162 171 -182 193 -21 22 -178 183 -349 358 -172 176 -317
329 -324 341 -7 11 -12 31 -13 44 l0 22 -315 0 c-202 0 -315 -4 -315 -10z
m1608 -1095 c-3 -3 -9 2 -12 12 -6 14 -5 15 5 6 7 -7 10 -15 7 -18z"/>
<path d="M9791 6463 c-27 -11 -70 -67 -58 -76 8 -5 5 -7 -7 -5 -13 2 -25 -6
-33 -22 -7 -14 -13 -18 -13 -10 0 8 -12 -3 -26 -25 -15 -22 -36 -50 -47 -63
-16 -17 -18 -25 -9 -34 7 -7 12 -17 12 -22 0 -6 -5 -4 -11 4 -8 11 -10 11 -7
1 2 -7 18 -15 36 -16 30 -2 31 -1 15 11 -16 13 -15 13 10 4 25 -9 31 -6 28 13
-1 5 3 6 8 3 18 -12 43 6 37 27 -7 26 14 64 63 118 22 24 41 49 41 56 0 6 7
19 16 27 14 15 13 16 -13 15 -15 0 -34 -3 -42 -6z"/>
<path d="M11562 6462 c2 -4 27 -56 56 -117 30 -60 62 -130 72 -155 10 -25 31
-74 48 -110 16 -36 72 -162 124 -280 109 -245 343 -773 399 -900 22 -48 34
-89 30 -95 -5 -6 6 -39 26 -80 19 -38 61 -128 94 -199 59 -130 86 -173 101
-158 10 10 58 147 58 167 0 8 -4 15 -10 15 -5 0 -10 -9 -10 -19 0 -26 -10 -51
-21 -51 -14 0 -51 66 -98 175 -24 55 -61 138 -83 184 -21 46 -56 125 -78 175
-21 50 -52 120 -68 156 -16 36 -51 115 -77 175 -26 61 -58 133 -70 160 -13 28
-46 102 -73 165 -204 470 -269 617 -309 702 -44 94 -46 96 -80 96 -18 0 -33
-3 -31 -6z m596 -1247 c-3 -3 -9 2 -12 12 -6 14 -5 15 5 6 7 -7 10 -15 7 -18z
m32 -70 c0 -5 -5 -3 -10 5 -5 8 -10 20 -10 25 0 6 5 3 10 -5 5 -8 10 -19 10
-25z m89 -200 c0 -5 -6 1 -14 15 -8 14 -14 30 -14 35 0 6 6 -1 14 -15 8 -14
14 -29 14 -35z m62 -151 c5 -15 8 -29 5 -31 -2 -2 -8 10 -14 26 -13 38 -5 41
9 5z m78 -189 c0 -5 -16 23 -35 64 -19 40 -34 76 -33 80 1 9 68 -133 68 -144z
m19 -40 c-3 -3 -9 2 -12 12 -6 14 -5 15 5 6 7 -7 10 -15 7 -18z m42 -80 c0 -5
-9 4 -20 20 -11 17 -20 35 -20 40 0 6 9 -3 20 -20 11 -16 20 -34 20 -40z"/>
<path d="M11676 6405 c33 -60 111 -229 206 -443 22 -51 42 -91 44 -89 5 4
-179 423 -230 525 -20 39 -41 72 -46 72 -5 0 6 -29 26 -65z"/>
<path d="M9695 6170 c-33 -22 -70 -45 -82 -52 -287 -167 -412 -289 -447 -438
-24 -102 -21 -310 5 -391 43 -130 117 -251 236 -385 61 -70 634 -641 801 -800
106 -101 386 -394 381 -399 -2 -2 -274 265 -605 593 -671 667 -726 730 -803
923 -57 143 -76 298 -49 420 6 30 11 66 12 81 1 14 3 24 5 22 9 -9 61 101 55
118 -3 10 -1 18 5 18 6 0 11 -5 11 -11 0 -6 9 -1 19 12 11 13 17 26 15 28 -2
3 -11 -4 -20 -15 -14 -17 -15 -18 -10 -1 3 10 6 21 6 23 0 2 7 4 15 4 8 0 19
9 25 20 6 11 16 19 22 17 7 -1 12 3 13 8 0 6 4 16 8 23 25 39 -78 -30 -138
-92 -96 -100 -138 -207 -137 -349 3 -226 91 -425 285 -645 18 -20 260 -264
539 -543 279 -280 525 -531 547 -558 22 -28 51 -75 65 -103 29 -62 163 -198
246 -250 30 -20 69 -49 85 -65 108 -107 178 -189 196 -230 50 -114 65 -135
167 -234 59 -58 125 -120 147 -139 155 -133 206 -178 323 -287 19 -18 39 -33
44 -33 5 0 7 -4 3 -10 -3 -5 3 -18 15 -30 24 -24 25 -24 -75 -4 -161 33 -528
11 -562 -34 -7 -9 -13 -31 -13 -49 0 -26 -4 -33 -19 -33 -11 0 -23 5 -26 10
-5 8 -11 7 -21 -1 -17 -14 -64 -3 -64 16 0 25 -18 26 -67 4 -174 -77 -311
-177 -424 -309 -49 -57 -129 -172 -129 -185 0 -3 -13 -33 -30 -67 -16 -34 -30
-69 -30 -78 0 -9 -4 -20 -9 -25 -17 -19 -43 -163 -48 -270 -7 -142 31 -369 76
-453 6 -11 11 -25 11 -31 0 -8 -149 -11 -486 -11 l-485 0 -37 25 c-25 17 -50
25 -79 25 -38 0 -42 3 -45 27 -4 39 -28 42 -28 4 0 -29 -3 -31 -34 -31 -23 0
-36 6 -41 18 -6 16 -7 16 -19 0 -18 -24 -59 -23 -82 3 -19 21 -25 82 -12 129
7 28 -15 45 -162 126 -41 22 -104 57 -138 77 -35 21 -66 37 -69 37 -3 0 -42
22 -87 49 -44 27 -100 58 -123 70 l-41 21 -31 -36 c-17 -19 -31 -31 -32 -27 0
4 -4 -1 -8 -12 -7 -18 -9 -18 -23 9 -12 24 -16 26 -21 12 -4 -10 -3 -15 3 -11
14 9 11 -5 -9 -40 -10 -17 -40 -42 -71 -58 -48 -25 -63 -28 -117 -24 -100 7
-177 66 -212 160 -17 45 -13 128 9 176 11 23 17 47 14 52 -3 5 3 6 12 2 12 -4
15 -3 10 6 -16 25 82 100 131 102 14 0 13 2 -5 10 -13 5 -29 6 -35 3 -9 -5 -9
-4 -2 4 8 8 21 9 45 2 23 -7 38 -6 45 1 7 7 5 8 -6 4 -10 -4 -19 0 -22 9 -4
10 3 16 26 21 63 13 97 27 97 41 0 8 -5 14 -12 14 -6 0 -8 3 -5 6 4 4 12 2 19
-4 15 -12 40 3 51 31 3 9 15 17 26 17 18 0 36 25 32 44 -1 5 9 6 22 4 14 -3
24 0 24 7 0 6 -12 9 -29 7 -16 -3 -28 0 -28 7 0 6 -10 11 -22 12 -22 0 -22 1
-3 8 19 8 19 8 -1 19 -40 21 -182 34 -256 22 -39 -6 -75 -13 -80 -16 -5 -3 -7
0 -6 7 2 6 -3 14 -11 17 -8 2 -11 1 -8 -4 3 -5 -6 -10 -20 -11 -27 -1 -46 -21
-36 -36 3 -5 -4 -4 -16 2 -14 8 -21 8 -21 1 0 -5 5 -10 11 -10 5 0 7 -5 4 -10
-10 -16 -25 -12 -25 7 0 14 -3 13 -17 -6 -10 -12 -43 -48 -73 -79 -93 -96
-128 -159 -156 -279 -55 -234 84 -522 295 -609 74 -31 116 -60 65 -45 -85 24
-209 105 -265 173 -43 52 -95 151 -116 222 -21 70 -20 206 1 281 22 73 69 174
96 203 23 24 26 37 8 26 -38 -21 86 94 137 127 33 21 52 39 43 39 -9 0 -20 -5
-23 -10 -4 -6 -11 -8 -16 -5 -5 4 -9 1 -9 -5 0 -7 -8 -9 -22 -5 -16 6 -20 4
-15 -8 4 -11 2 -14 -8 -11 -39 15 -199 -127 -241 -215 -51 -109 -58 -140 -58
-261 1 -99 4 -124 26 -181 15 -37 38 -86 53 -110 33 -53 112 -139 119 -131 3
3 6 1 6 -5 0 -22 114 -86 212 -120 112 -38 179 -44 333 -30 97 9 210 59 298
131 l58 47 157 -89 c86 -49 184 -103 217 -120 33 -17 67 -36 75 -41 10 -7
-754 -11 -2424 -11 l-2439 0 74 78 c41 42 186 193 323 334 136 141 259 272
272 289 15 20 24 47 24 68 0 32 -12 47 -132 166 -128 125 -566 550 -943 915
-99 96 -272 264 -385 375 -299 291 -547 532 -700 679 -153 147 -373 360 -536
519 -105 101 -113 107 -153 107 -23 0 -58 -9 -79 -19 -37 -20 -316 -298 -762
-761 -135 -140 -324 -335 -421 -435 -97 -99 -226 -231 -285 -294 -60 -63 -157
-164 -216 -225 l-107 -111 -1 -92 0 -91 113 116 c62 65 155 162 207 217 52 55
181 190 285 300 105 110 231 243 280 295 417 442 779 820 788 820 6 0 69 -58
141 -128 151 -147 396 -385 540 -522 58 -56 100 -90 103 -83 3 10 10 10 25 2
15 -8 17 -14 9 -22 -12 -12 -15 -31 -3 -24 4 3 -29 -31 -72 -76 -162 -166
-173 -219 -67 -329 19 -21 30 -38 24 -38 -25 0 -120 140 -108 160 3 5 1 11 -5
15 -5 3 -10 12 -10 18 0 9 3 8 8 -1 6 -8 9 -1 9 20 l0 32 -15 -31 c-29 -61
-12 -94 114 -223 63 -64 114 -120 114 -125 0 -7 39 -45 46 -45 1 0 0 9 -3 20
-3 11 -37 49 -76 85 -39 36 -68 67 -66 70 3 2 42 -33 86 -78 75 -76 104 -112
212 -267 49 -70 88 -105 237 -213 110 -79 284 -240 273 -251 -3 -3 -45 35 -94
84 -49 49 -90 88 -92 86 -4 -4 203 -214 232 -236 11 -8 4 3 -14 23 -49 52 -28
46 30 -8 86 -80 131 -64 299 111 41 42 69 74 63 70 -18 -10 -16 4 3 25 14 15
14 17 0 15 -9 0 -67 -51 -129 -113 -63 -62 -125 -115 -140 -118 -30 -8 -92 29
-81 47 4 6 3 8 -3 5 -8 -5 -44 26 -40 35 1 1 -38 44 -87 93 -49 50 -84 82 -77
73 8 -10 10 -18 7 -18 -18 0 -276 188 -276 201 0 4 -21 27 -46 51 -25 24 -82
95 -127 158 -92 131 -136 182 -150 173 -6 -3 -7 -2 -4 4 7 11 -56 76 -66 68
-4 -3 -5 -2 -2 1 2 4 -11 24 -30 46 -19 21 -35 43 -35 48 0 6 -7 10 -15 10
-41 0 14 99 114 203 57 60 76 86 76 108 1 56 98 131 164 128 27 -2 47 3 60 15
20 18 24 14 210 -171 105 -105 191 -196 191 -202 0 -15 240 -251 255 -251 6 0
96 -86 200 -191 190 -190 190 -190 168 -208 -15 -12 -18 -22 -12 -32 16 -25
10 -65 -16 -103 -14 -20 -24 -41 -22 -46 1 -5 -7 -16 -18 -24 -18 -14 -18 -15
-2 -16 10 0 22 -10 27 -22 8 -22 9 -21 9 7 1 21 4 26 12 18 6 -6 9 -21 7 -34
-2 -17 -9 -23 -23 -21 -22 3 87 -107 483 -483 139 -131 252 -242 252 -245 0
-4 -57 -66 -298 -325 -41 -44 -113 -119 -160 -167 l-85 -88 -1953 0 -1954 0 0
-450 0 -450 6500 0 6500 0 0 1039 0 1040 -41 65 c-66 105 -62 163 15 235 l26
24 0 478 0 478 -81 243 c-44 134 -96 282 -115 329 -38 96 -42 118 -20 100 22
-19 85 -171 152 -371 49 -145 62 -177 63 -147 1 49 -94 345 -157 492 l-48 110
-39 -1 c-22 -1 -44 3 -48 10 -5 6 -6 2 -2 -11 3 -12 1 -24 -5 -28 -6 -4 -28
32 -56 92 -73 159 -105 221 -98 188 4 -16 6 -40 6 -53 -1 -12 18 -68 43 -124
46 -104 52 -123 37 -114 -9 6 -46 -32 -54 -54 -2 -7 -18 19 -36 59 -18 39 -34
71 -36 71 -2 0 9 -34 24 -75 15 -41 24 -78 19 -81 -5 -3 -9 3 -9 13 -1 24 -22
51 -37 46 -7 -3 -13 2 -13 11 0 9 -7 16 -15 16 -14 0 -105 113 -105 131 0 8
-39 71 -59 95 -4 6 -14 27 -22 47 -7 20 -17 37 -21 37 -8 0 -14 -100 -11 -194
0 -26 8 -65 16 -85 16 -37 43 -126 74 -241 22 -84 22 -279 -1 -365 -21 -78
-56 -175 -73 -200 -7 -11 -13 -27 -13 -37 0 -10 -4 -18 -8 -18 -4 0 -13 -13
-19 -30 -6 -17 -10 -30 -8 -30 7 0 145 144 145 151 0 3 10 17 21 30 12 13 45
61 75 106 54 84 94 120 94 86 0 -16 2 -16 11 -3 8 11 9 7 5 -18 -4 -22 -2 -31
5 -26 8 4 8 1 1 -12 -5 -11 -6 -28 -3 -38 12 -33 54 129 58 229 4 85 -13 185
-51 290 -13 37 83 -159 127 -260 25 -55 70 -176 100 -270 31 -93 79 -236 106
-317 55 -162 75 -274 64 -352 l-7 -51 -12 85 c-7 47 -19 112 -27 145 -9 33
-13 64 -10 69 4 5 1 6 -5 2 -7 -4 -12 -1 -12 9 0 9 -7 30 -16 47 -9 16 -11 27
-5 24 7 -4 8 -1 5 8 -3 9 -9 16 -13 16 -4 0 -18 18 -30 41 -14 25 -28 38 -37
35 -7 -3 -11 0 -8 7 3 8 -5 13 -20 15 -36 3 -40 -50 -13 -219 15 -100 22 -188
22 -289 0 -132 -2 -149 -24 -193 -29 -59 -139 -170 -196 -197 -31 -15 -61 -20
-124 -20 -136 0 -271 56 -402 167 -269 227 -491 431 -594 545 -70 78 -103 120
-80 102 278 -213 673 -215 964 -3 33 24 62 50 65 56 3 7 -20 -8 -50 -32 -71
-58 -170 -108 -281 -141 -74 -22 -108 -27 -213 -27 -87 -1 -145 4 -190 16 -92
24 -239 99 -298 152 -51 46 -75 59 -51 28 7 -10 -10 4 -39 32 -29 27 -52 51
-52 54 0 3 18 -13 40 -34 22 -21 40 -35 40 -29 0 17 -96 105 -105 97 -4 -5 -5
-3 -2 3 4 6 -1 18 -11 27 -17 15 -142 58 -210 72 -24 5 -31 10 -23 18 7 7 15
6 26 -3 22 -18 19 -3 -7 33 -29 42 -300 328 -306 323 -10 -11 30 -61 140 -174
66 -68 118 -126 115 -128 -4 -4 -61 53 -201 203 -32 34 -63 61 -70 60 -6 -1
-10 9 -8 23 2 21 -88 115 -581 605 -596 592 -664 664 -732 773 -21 34 -40 60
-43 58 -2 -3 6 -22 19 -43 50 -82 52 -90 21 -54 -73 81 -140 254 -149 386 -11
156 37 299 125 374 143 122 181 146 81 50 -57 -54 -59 -57 -14 -22 53 42 232
158 325 212 93 53 94 55 75 85 -10 14 -18 26 -19 25 0 0 -28 -18 -61 -39z
m-514 -356 c-11 -15 -21 -24 -21 -20 0 12 33 57 37 52 3 -3 -4 -17 -16 -32z
m126 -724 c19 -30 25 -44 13 -31 -23 27 -90 138 -90 149 0 4 10 -9 22 -28 11
-19 36 -60 55 -90z m84 -112 c24 -29 36 -47 26 -39 -20 16 -81 91 -74 91 2 0
24 -24 48 -52z m279 -293 c129 -129 233 -235 230 -235 -3 0 -111 106 -240 235
-129 129 -233 235 -230 235 3 0 111 -106 240 -235z m311 -312 c13 -16 12 -17
-3 -4 -10 7 -18 15 -18 17 0 8 8 3 21 -13z m99 -88 c13 -14 21 -25 18 -25 -2
0 -15 11 -28 25 -13 14 -21 25 -18 25 2 0 15 -11 28 -25z m2509 -30 c0 -5 -6
1 -14 15 -8 14 -14 30 -14 35 0 6 6 -1 14 -15 8 -14 14 -29 14 -35z m-2439
-40 c19 -19 32 -35 29 -35 -3 0 -20 16 -39 35 -19 19 -32 35 -29 35 3 0 20
-16 39 -35z m2517 -141 c-2 -2 -19 28 -36 68 -48 106 -48 116 -1 19 23 -46 39
-85 37 -87z m-2437 61 c19 -19 32 -35 29 -35 -3 0 -20 16 -39 35 -19 19 -32
35 -29 35 3 0 20 -16 39 -35z m81 -82 c13 -16 12 -17 -3 -4 -10 7 -18 15 -18
17 0 8 8 3 21 -13z m2263 -79 c3 -8 2 -12 -4 -9 -6 3 -10 10 -10 16 0 14 7 11
14 -7z m-2085 -57 l25 -32 -32 29 c-33 31 -37 36 -24 35 4 0 18 -14 31 -32z
m106 -106 c27 -28 45 -51 40 -51 -6 0 -37 28 -70 61 -33 34 -51 57 -40 51 11
-6 42 -33 70 -61z m2012 37 c-3 -8 -6 -5 -6 6 -1 11 2 17 5 13 3 -3 4 -12 1
-19z m-72 -29 c15 -15 20 -40 23 -109 5 -114 3 -122 -40 -110 -18 6 -36 6 -41
1 -15 -15 -48 0 -58 27 -14 37 5 83 46 110 36 23 47 52 20 52 -8 0 -15 -7 -15
-15 0 -10 -10 -15 -31 -15 -24 0 -30 3 -25 16 3 9 6 21 6 28 0 35 88 46 115
15z m-1940 -59 c10 -11 16 -20 13 -20 -3 0 -13 9 -23 20 -10 11 -16 20 -13 20
3 0 13 -9 23 -20z m85 -92 c0 -5 -7 -3 -15 6 -8 8 -15 18 -15 22 0 3 7 1 15
-6 8 -7 15 -17 15 -22z m105 -98 c3 -6 -1 -7 -9 -4 -18 7 -21 14 -7 14 6 0 13
-4 16 -10z m33 -45 c-3 -3 -9 2 -12 12 -6 14 -5 15 5 6 7 -7 10 -15 7 -18z
m82 -88 c0 -5 -16 10 -35 33 -19 23 -35 45 -35 48 1 10 70 -71 70 -81z m139
-189 c80 -82 140 -148 135 -148 -11 0 -304 292 -304 303 0 15 25 -8 169 -155z
m-44 102 c21 -22 37 -40 34 -40 -3 0 -23 18 -44 40 -21 22 -37 40 -34 40 3 0
23 -18 44 -40z m75 5 c25 -30 3 -25 -26 6 -22 24 -24 29 -8 21 11 -6 27 -18
34 -27z m160 -210 c0 -12 -117 102 -183 180 -32 38 -8 18 66 -55 64 -63 117
-119 117 -125z m-55 15 c10 -11 16 -20 13 -20 -3 0 -13 9 -23 20 -10 11 -16
20 -13 20 3 0 13 -9 23 -20z m352 -287 c9 -24 -3 -24 -26 1 l-23 25 22 -6 c12
-3 24 -12 27 -20z m110 -703 c48 -23 115 -61 148 -83 86 -58 243 -220 290
-300 59 -99 81 -140 88 -162 3 -11 13 -40 23 -65 70 -187 85 -423 38 -598
l-17 -62 -771 2 c-762 3 -771 3 -774 23 -2 11 -10 35 -18 53 -9 18 -17 40 -19
50 -2 9 -15 67 -29 127 -21 94 -24 130 -21 250 2 93 8 159 19 195 9 30 19 65
21 77 8 36 45 117 63 137 13 15 13 17 2 11 -8 -4 -5 3 8 17 12 13 22 28 22 32
0 4 6 13 13 20 6 8 32 37 56 65 102 121 251 204 456 255 11 3 86 4 167 2 l147
-2 88 -44z m703 -44 c47 -9 136 -16 206 -16 100 0 124 -3 124 -14 0 -8 3 -16
8 -18 9 -4 32 -53 78 -168 33 -84 52 -145 85 -270 21 -80 39 -189 50 -303 10
-104 10 -143 -5 -262 -9 -77 -16 -148 -17 -157 0 -16 -14 -18 -136 -18 l-135
0 6 22 c32 115 25 359 -14 524 -56 236 -192 476 -373 655 l-88 87 64 -23 c36
-13 102 -31 147 -39z m-1480 -13 c0 -5 -18 -26 -40 -48 -91 -91 -182 -244
-229 -384 -34 -99 -54 -252 -46 -351 7 -97 38 -264 61 -330 35 -101 35 -100 9
-100 -21 0 -26 10 -54 113 -116 422 -42 789 210 1037 66 65 89 81 89 63z
m-2760 -52 c0 -4 -11 -6 -25 -3 -14 2 -25 6 -25 8 0 2 11 4 25 4 14 0 25 -4
25 -9z m4187 -112 c155 -165 254 -382 288 -629 26 -186 11 -411 -27 -418 -15
-3 -16 3 -11 47 5 42 3 51 -10 51 -8 0 -17 6 -20 13 -4 10 -7 10 -18 0 -32
-30 -69 -3 -69 51 0 31 6 40 40 62 40 27 54 64 25 64 -8 0 -15 -7 -15 -15 0
-9 -9 -15 -25 -15 -20 0 -25 5 -25 24 0 44 63 70 105 42 13 -9 26 -16 28 -16
6 0 -2 68 -19 152 -43 215 -135 414 -278 601 -40 53 -25 46 31 -14z m-4107 37
c0 -11 -19 -15 -25 -6 -3 5 1 10 9 10 9 0 16 -2 16 -4z m-670 -256 c0 -5 -5
-10 -11 -10 -5 0 -7 5 -4 10 3 6 8 10 11 10 2 0 4 -4 4 -10z m-2833 -42 c6
-13 7 -32 2 -43 -4 -11 -8 -14 -8 -7 -1 7 -5 10 -11 7 -5 -3 -7 0 -4 8 3 8 1
18 -5 21 -11 7 -4 36 8 36 4 0 12 -10 18 -22z m2825 3 c8 11 9 11 5 -2 -3 -9
-2 -40 3 -70 6 -43 8 -47 9 -19 1 30 3 32 12 17 6 -10 8 -28 5 -39 -7 -30 10
-57 32 -51 24 6 50 -23 34 -39 -8 -8 -13 -7 -18 5 -3 9 -12 17 -20 17 -11 0
-13 -9 -8 -40 4 -26 3 -40 -4 -40 -6 0 -9 -6 -6 -14 3 -8 -3 -16 -15 -19 -21
-5 -29 7 -12 17 5 3 7 16 4 27 -5 19 -7 18 -19 -10 -7 -17 -11 -39 -8 -49 5
-15 4 -15 -6 1 -6 10 -9 24 -6 32 3 8 1 15 -4 17 -14 5 -24 118 -15 174 l8 49
14 -30 14 -30 -5 35 c-3 19 -7 44 -9 55 -2 11 -2 14 0 6 4 -12 6 -12 15 0z
m38 -315 c0 -3 -4 -8 -10 -11 -5 -3 -10 -1 -10 4 0 6 5 11 10 11 6 0 10 -2 10
-4z m670 -17 c0 -6 -4 -7 -10 -4 -5 3 -10 11 -10 16 0 6 5 7 10 4 6 -3 10 -11
10 -16z m-690 -34 c0 -5 -5 -3 -10 5 -5 8 -10 20 -10 25 0 6 5 3 10 -5 5 -8
10 -19 10 -25z m2847 -147 c-3 -8 -6 -5 -6 6 -1 11 2 17 5 13 3 -3 4 -12 1
-19z m-2372 -179 c-7 -11 -115 -12 -115 -1 0 4 27 8 60 9 36 1 58 -2 55 -8z
m-7215 -500 l0 -200 -32 3 -33 3 -3 185 c-1 101 0 190 2 197 3 7 19 13 36 13
l30 0 0 -201z m-119 112 c23 -18 24 -27 29 -165 l5 -146 -32 0 c-17 0 -33 6
-36 13 -4 10 -7 10 -18 0 -7 -7 -28 -13 -46 -13 -44 0 -68 35 -60 91 6 46 25
71 78 101 41 23 55 51 33 68 -17 15 -34 4 -34 -21 0 -15 -7 -19 -35 -19 -32 0
-35 2 -35 30 0 69 95 107 151 61z m282 8 c39 -18 47 -50 47 -189 l0 -130 -29
0 c-16 0 -31 6 -34 13 -4 10 -7 10 -18 0 -19 -18 -69 -16 -91 4 -23 20 -24 90
-3 121 9 12 36 36 61 53 34 23 44 36 42 52 -4 29 -30 28 -43 0 -7 -17 -18 -23
-44 -23 -32 0 -33 1 -27 33 12 62 78 94 139 66z m157 -4 c18 21 56 19 73 -5
l14 -20 18 20 c22 24 58 26 79 4 13 -13 16 -42 16 -165 l0 -149 -29 0 -29 0
-4 125 c-2 84 -7 128 -16 137 -24 24 -32 -12 -32 -139 l0 -123 -35 0 -34 0 -3
133 c-3 109 -6 132 -18 132 -12 0 -15 -23 -18 -132 l-3 -133 -34 0 -35 0 0
159 0 160 28 3 c15 2 32 -2 38 -9 9 -11 14 -10 24 2z m290 -120 c5 -122 6
-130 25 -130 19 0 20 8 23 126 l3 127 34 4 35 4 0 -188 c0 -187 0 -189 -25
-213 -20 -21 -34 -25 -85 -25 -60 0 -60 0 -60 29 0 28 2 30 48 33 43 3 47 5
50 30 3 27 3 27 -24 14 -33 -18 -64 -8 -81 25 -12 23 -19 279 -8 290 2 3 17 5
32 4 l28 0 5 -130z m9865 85 c0 -27 -4 -50 -10 -50 -5 0 -10 23 -10 50 0 28 5
50 10 50 6 0 10 -22 10 -50z m470 0 c0 -27 -4 -50 -10 -50 -5 0 -10 23 -10 50
0 28 5 50 10 50 6 0 10 -22 10 -50z m93 38 c7 -7 12 -24 12 -38 0 -34 -17 -50
-52 -50 -27 0 -28 2 -28 50 0 48 1 50 28 50 15 0 33 -5 40 -12z m160 -14 c2
-11 -4 -27 -13 -34 -21 -17 -19 -28 8 -33 16 -3 13 -5 -10 -6 -38 -1 -41 8
-13 34 27 25 27 59 0 52 -11 -3 -17 -1 -14 4 10 17 39 5 42 -17z m95 -31 c10
-24 12 -43 7 -43 -6 0 -10 7 -10 15 0 9 -9 15 -25 15 -16 0 -25 -6 -25 -15 0
-8 -4 -15 -10 -15 -6 0 -6 9 0 25 6 14 15 37 20 52 12 31 21 24 43 -34z m85
50 c-14 -3 -18 -15 -18 -49 0 -24 -4 -44 -10 -44 -5 0 -10 20 -10 44 0 34 -4
46 -17 49 -10 3 2 5 27 5 25 0 37 -2 28 -5z m55 -5 c-13 -6 -23 -14 -23 -18 0
-4 10 -6 23 -6 18 1 22 -4 22 -29 0 -25 -4 -30 -25 -30 -21 0 -26 5 -28 33 -4
37 12 62 37 61 11 0 10 -3 -6 -11z m103 3 c-37 -8 -55 -34 -40 -58 16 -27 54
-29 54 -5 0 11 -6 23 -12 25 -8 3 -6 6 5 6 12 1 17 -7 17 -29 0 -26 -4 -30
-28 -30 -35 0 -52 16 -52 52 0 30 22 48 60 47 23 -1 23 -2 -4 -8z m88 -8 c20
26 29 20 11 -7 -15 -23 -15 -27 0 -53 l17 -28 -20 23 -21 23 -13 -20 c-7 -12
-16 -21 -21 -21 -4 0 0 12 10 26 13 21 14 30 5 45 -17 27 -14 38 4 14 14 -19
16 -19 28 -2z m79 10 c-13 -2 -23 -11 -23 -19 0 -8 10 -15 23 -15 l22 -2 -22
-4 c-16 -3 -23 -11 -23 -29 0 -13 -4 -24 -10 -24 -5 0 -10 23 -10 50 l0 50 33
-1 c23 -1 26 -3 10 -6z m-1096 -58 l1 -40 -6 35 c-4 22 -13 35 -22 35 -9 0
-17 -13 -21 -35 l-6 -35 -2 38 c-1 24 -6 37 -15 37 -8 0 -18 -17 -24 -37 l-10
-38 -1 41 -1 41 53 -1 52 -1 2 -40z m77 29 c3 -9 6 -26 6 -38 0 -19 -5 -23
-27 -22 -35 1 -45 35 -14 43 26 7 27 20 4 26 -14 4 -13 5 3 6 12 0 25 -6 28
-15z m84 -41 c-3 -54 -5 -58 -28 -60 -25 -3 -25 -3 -2 7 12 5 22 14 22 19 0 5
-10 11 -22 13 -15 2 -24 11 -26 26 -5 36 5 52 33 52 25 0 26 -2 23 -57z m90
35 c3 -14 -3 -18 -23 -18 -33 0 -29 -21 6 -32 22 -6 21 -7 -6 -5 -23 2 -31 7
-33 25 -2 13 -1 30 2 38 8 21 50 14 54 -8z m232 12 c0 -5 -4 -10 -10 -10 -5 0
-10 5 -10 10 0 6 5 10 10 10 6 0 10 -4 10 -10z m0 -60 c0 -5 -4 -10 -10 -10
-5 0 -10 5 -10 10 0 6 5 10 10 10 6 0 10 -4 10 -10z m-110 -190 c0 -47 -3 -60
-15 -60 -12 0 -15 13 -15 60 0 47 3 60 15 60 12 0 15 -13 15 -60z m-580 10 c0
-11 5 -20 10 -20 6 0 10 9 10 20 0 30 27 24 38 -7 l10 -28 7 28 c7 28 25 38
25 13 0 -27 -22 -76 -35 -76 -7 0 -16 15 -20 33 l-8 32 -6 -30 c-8 -40 -36
-45 -44 -8 -3 15 -9 36 -12 46 -5 12 -2 17 9 17 9 0 16 -8 16 -20z m140 0 c0
-11 5 -20 10 -20 6 0 10 9 10 21 0 29 32 21 41 -11 l6 -25 8 28 c7 28 25 38
25 13 0 -7 -5 -27 -11 -45 -13 -37 -39 -42 -39 -7 0 36 -17 40 -24 6 -8 -45
-31 -37 -43 15 -8 36 -8 45 3 45 8 0 14 -9 14 -20z m140 0 c0 -11 5 -20 10
-20 6 0 10 9 10 20 0 30 27 24 38 -7 l10 -28 7 28 c7 28 25 38 25 13 0 -27
-22 -76 -35 -76 -7 0 -16 15 -20 33 l-7 32 -9 -32 c-13 -46 -34 -41 -46 12 -8
36 -8 45 3 45 8 0 14 -9 14 -20z m234 11 c3 -4 7 -24 10 -43 4 -35 4 -35 -32
-34 -32 1 -37 4 -37 26 0 17 7 26 25 31 24 7 24 7 3 8 -13 1 -23 6 -23 11 0
12 47 13 54 1z m154 -8 c4 -10 7 -24 6 -30 -1 -7 -2 -19 -3 -26 0 -7 -14 -13
-33 -12 -28 0 -33 4 -33 25 0 17 7 26 25 31 24 7 24 7 3 8 -31 1 -29 21 2 21
13 0 28 -8 33 -17z m160 -2 c12 -25 8 -64 -5 -68 -9 -3 -13 7 -13 31 0 25 -4
36 -15 36 -10 0 -15 -11 -15 -35 0 -44 -18 -46 -22 -3 -4 46 -28 49 -28 4 0
-25 -4 -36 -15 -36 -11 0 -15 12 -15 44 l0 43 60 0 c46 0 63 -4 68 -16z m57
-8 l8 -28 10 28 c6 15 17 27 25 27 10 0 12 -6 7 -17 -4 -10 -14 -37 -22 -60
-13 -39 -38 -62 -52 -47 -3 4 0 9 7 11 16 6 15 33 -3 77 -13 30 -13 36 -1 36
8 0 17 -12 21 -27z m175 18 c0 -5 -9 -11 -20 -14 -11 -3 -20 -13 -20 -22 0 -9
9 -19 20 -22 25 -7 26 -23 2 -23 -24 0 -42 19 -42 45 0 12 5 26 12 33 14 14
48 16 48 3z m90 -5 c28 -35 -11 -93 -47 -70 -36 22 -23 84 17 84 10 0 23 -7
30 -14z m160 -7 c13 -24 9 -69 -7 -69 -8 0 -13 13 -13 35 0 24 -5 35 -15 35
-10 0 -15 -11 -15 -35 0 -44 -18 -46 -22 -3 -4 46 -28 49 -28 4 0 -25 -4 -36
-15 -36 -11 0 -15 12 -15 44 l0 43 60 0 c48 0 63 -4 70 -18z m-889 -62 c-13
-13 -26 -3 -16 12 3 6 11 8 17 5 6 -4 6 -10 -1 -17z m550 0 c-13 -13 -26 -3
-16 12 3 6 11 8 17 5 6 -4 6 -10 -1 -17z"/>
<path d="M12480 3691 c-14 -27 -13 -41 5 -41 10 0 15 10 15 30 0 35 -5 38 -20
11z"/>
<path d="M12483 1099 c-16 -16 -17 -45 -3 -54 13 -8 23 17 18 45 -2 17 -5 19
-15 9z"/>
<path d="M4650 1686 c0 -2 7 -9 15 -16 13 -11 14 -10 9 4 -5 14 -24 23 -24 12z"/>
<path d="M7472 1590 c0 -14 2 -19 5 -12 2 6 2 18 0 25 -3 6 -5 1 -5 -13z"/>
<path d="M596 431 c-31 -32 -31 -64 -2 -69 25 -5 36 15 34 61 -1 20 -2 37 -3
37 -1 0 -14 -13 -29 -29z"/>
<path d="M893 438 c-33 -36 -35 -78 -3 -78 25 0 32 17 28 65 l-3 37 -22 -24z"/>
<path d="M11770 580 c0 -33 3 -41 16 -38 26 5 41 35 28 56 -6 9 -19 18 -28 20
-13 3 -16 -5 -16 -38z"/>
<path d="M12036 595 c-9 -23 -8 -25 9 -25 17 0 19 9 6 28 -7 11 -10 10 -15 -3z"/>
<path d="M12193 574 c-8 -21 13 -42 28 -27 13 13 5 43 -11 43 -6 0 -13 -7 -17
-16z"/>
<path d="M11420 555 c0 -8 7 -15 15 -15 8 0 15 7 15 15 0 8 -7 15 -15 15 -8 0
-15 -7 -15 -15z"/>
<path d="M11504 586 c-9 -22 2 -46 21 -46 12 0 15 8 13 27 -3 30 -25 42 -34
19z"/>
<path d="M11595 590 c-3 -5 3 -10 15 -10 12 0 18 5 15 10 -3 6 -10 10 -15 10
-5 0 -12 -4 -15 -10z"/>
<path d="M11657 333 c-12 -11 -8 -23 8 -23 8 0 15 7 15 15 0 16 -12 20 -23 8z"/>
<path d="M11807 333 c-12 -11 -8 -23 8 -23 8 0 15 7 15 15 0 16 -12 20 -23 8z"/>
<path d="M12283 344 c-8 -21 13 -42 28 -27 13 13 5 43 -11 43 -6 0 -13 -7 -17
-16z"/>
<path d="M11934 5850 c7 -28 69 -160 73 -157 2 2 -15 42 -37 88 -22 46 -39 77
-36 69z"/>
<path d="M12011 5675 c0 -5 6 -21 14 -35 8 -14 14 -20 14 -15 0 6 -6 21 -14
35 -8 14 -14 21 -14 15z"/>
<path d="M12081 5515 c0 -5 8 -26 19 -45 11 -19 19 -30 19 -25 0 6 -8 26 -19
45 -11 19 -19 31 -19 25z"/>
<path d="M12130 5405 c0 -5 5 -17 10 -25 5 -8 10 -10 10 -5 0 6 -5 17 -10 25
-5 8 -10 11 -10 5z"/>
<path d="M12151 5355 c0 -5 11 -30 24 -55 13 -25 24 -40 24 -35 0 6 -11 30
-24 55 -13 25 -24 41 -24 35z"/>
<path d="M12200 5245 c0 -5 5 -17 10 -25 5 -8 10 -10 10 -5 0 6 -5 17 -10 25
-5 8 -10 11 -10 5z"/>
<path d="M1393 5150 c13 -34 4 -48 -18 -30 -9 7 -13 21 -10 31 8 24 -22 25
-131 4 -90 -17 -137 -45 -209 -121 -285 -305 -312 -333 -445 -454 -171 -157
-364 -354 -416 -425 -27 -37 -43 -56 -114 -133 -13 -15 -24 -30 -22 -34 1 -5
-5 -8 -13 -8 -10 0 -15 -10 -15 -33 0 -34 47 -97 72 -97 8 0 72 58 143 129 72
71 132 128 134 125 2 -2 5 -18 6 -36 3 -31 -20 -62 -106 -147 -42 -41 -69 -95
-69 -137 0 -28 5 -44 13 -45 6 0 19 -2 28 -4 10 -2 52 33 105 86 49 49 94 89
101 89 7 0 12 6 10 13 -1 6 4 11 11 10 6 -2 12 4 12 13 0 8 4 12 10 9 6 -3 10
1 10 9 0 10 6 13 15 10 11 -5 14 -2 8 12 -6 18 -5 18 18 -1 13 -11 26 -22 29
-25 33 -33 44 -33 12 1 -43 45 -59 77 -22 44 11 -10 22 -16 25 -13 3 3 -1 11
-10 18 -8 7 -15 17 -15 23 0 5 9 2 20 -8 11 -10 22 -16 25 -13 3 3 -1 11 -10
18 -8 7 -15 17 -15 23 0 5 9 2 20 -8 11 -10 22 -16 25 -13 3 3 -1 11 -10 18
-25 21 -17 32 10 14 28 -18 35 -8 8 12 -10 7 -15 16 -10 20 4 4 25 -10 47 -31
22 -22 40 -35 40 -30 0 6 -17 24 -37 42 -21 17 -34 35 -30 40 5 4 15 -1 23
-11 7 -11 16 -17 19 -14 3 3 -1 11 -10 18 -26 22 -16 33 12 15 l28 -18 -19 22
c-24 27 -13 40 14 16 11 -10 20 -13 20 -7 0 6 -8 15 -17 21 -10 5 -15 12 -11
16 3 4 19 -1 35 -10 l28 -17 -24 21 c-13 12 -21 24 -18 28 4 3 22 -8 42 -26
50 -44 56 -39 10 9 -21 22 -34 40 -28 40 7 0 15 -4 18 -10 3 -5 11 -10 17 -10
6 0 3 9 -7 20 -10 11 -13 20 -8 20 6 0 16 -7 23 -15 7 -9 15 -13 18 -10 3 3
-3 14 -13 25 -10 11 -13 20 -7 20 6 0 14 -4 17 -10 3 -5 11 -10 17 -10 6 0 3
9 -7 20 -10 11 -13 20 -7 20 6 0 14 -4 17 -10 3 -5 11 -10 17 -10 6 0 3 9 -7
20 -29 32 0 23 42 -12 l38 -32 -40 42 c-21 23 -34 42 -28 42 7 0 15 -4 18 -10
3 -5 11 -10 17 -10 6 0 4 8 -6 19 -15 17 -15 19 0 31 13 12 19 12 37 0 22 -13
22 -13 3 9 -24 26 -2 29 28 4 15 -13 14 -10 -3 10 -18 20 -21 27 -9 27 8 0 23
-9 34 -21 10 -11 28 -25 39 -31 11 -6 3 5 -17 24 -21 18 -38 40 -38 47 0 11 5
10 20 -4 11 -10 20 -13 20 -7 0 6 -4 14 -10 17 -5 3 -10 11 -10 17 0 6 9 3 20
-7 11 -10 22 -16 25 -13 3 3 -1 11 -10 18 -8 7 -15 17 -15 23 0 7 4 7 12 -1 7
-7 17 -12 22 -12 6 0 5 5 -2 12 -20 20 -13 32 8 13 21 -19 29 -8 9 12 -9 9 -8
16 4 27 10 10 18 12 22 6 3 -5 11 -10 18 -10 8 0 8 3 -1 12 -7 7 -12 16 -12
22 0 6 5 5 12 -2 17 -17 29 -15 22 3 -5 12 -2 14 12 8 17 -6 18 -5 4 12 -14
17 -13 17 10 10 22 -7 23 -6 11 9 -27 32 0 29 36 -5 l37 -34 -33 39 c-35 42
-35 61 1 30 l23 -19 -19 23 c-22 25 -15 42 9 22 9 -7 15 -8 15 -2 0 6 -6 12
-12 15 -7 2 -10 8 -6 12 4 4 15 2 24 -6 16 -13 16 -12 5 9 -13 24 -3 30 17 10
7 -7 12 -8 12 -2 0 6 -5 15 -12 22 -28 28 9 9 40 -20 22 -22 31 -26 24 -13 -5
11 -20 29 -31 39 -12 11 -21 24 -21 29 0 6 9 2 20 -8 11 -10 20 -13 20 -7 0 6
-4 14 -10 17 -5 3 -10 11 -10 18 0 8 3 8 12 -1 7 -7 17 -12 22 -12 6 0 5 5 -2
12 -7 7 -12 16 -12 22 0 6 5 5 12 -2 7 -7 17 -12 22 -12 6 0 5 5 -2 12 -7 7
-12 16 -12 22 0 6 5 5 12 -2 17 -17 33 -15 18 3 -19 23 -1 18 39 -12 l36 -26
-32 34 c-27 29 -30 36 -19 51 12 17 14 17 31 -2 11 -13 25 -18 37 -14 11 3 20
0 24 -10 3 -9 10 -13 15 -11 5 3 20 -2 34 -11 14 -9 25 -12 25 -5 0 6 8 8 18
4 15 -6 15 -5 3 10 -15 19 -1 23 27 8 12 -6 23 -5 36 4 17 13 15 15 -22 34
-53 27 -68 85 -37 145 l16 30 -68 69 c-37 37 -75 73 -85 78 -14 8 -15 5 -5
-21z m-33 -56 c0 -8 -4 -13 -9 -9 -5 3 -12 1 -16 -5 -4 -6 -11 -8 -16 -4 -13
8 8 34 27 34 8 0 14 -7 14 -16z m-55 -34 c3 -5 1 -10 -4 -10 -6 0 -11 5 -11
10 0 6 2 10 4 10 3 0 8 -4 11 -10z m-4 -43 c-9 -9 -14 -8 -21 3 -16 24 -11 31
11 19 16 -8 18 -14 10 -22z m-21 -16 c0 -4 -10 -18 -22 -31 -13 -14 -22 -28
-21 -32 2 -4 -5 -4 -14 -1 -13 5 -15 2 -10 -11 4 -9 3 -15 -2 -11 -5 3 -12 -3
-16 -12 -3 -10 -23 -31 -44 -48 -21 -16 -38 -32 -36 -35 4 -9 -74 -78 -81 -71
-4 3 -4 -2 -1 -12 4 -11 3 -16 -3 -12 -6 3 -10 -1 -10 -9 0 -9 -4 -16 -9 -16
-12 0 -20 -49 -10 -56 20 -12 8 -24 -13 -13 -20 11 -21 10 -11 -2 10 -13 7
-15 -18 -13 -26 2 -42 -9 -100 -66 -38 -37 -69 -66 -69 -64 0 2 -15 -13 -34
-33 -111 -123 -146 -150 -130 -101 12 39 71 113 88 111 12 -1 15 4 11 14 -5
14 -3 14 11 2 15 -12 16 -11 10 9 -6 17 -4 23 6 21 32 -4 39 1 32 23 -6 21 -5
21 10 9 16 -13 17 -12 12 15 -4 16 -3 23 0 17 8 -18 27 -16 21 1 -7 18 18 40
34 30 9 -5 10 -2 6 10 -6 14 -3 17 9 12 12 -5 15 -2 10 10 -4 11 -2 15 8 11
19 -8 38 16 30 38 -6 14 -3 16 14 11 17 -6 21 -4 16 8 -7 18 22 51 31 36 3 -5
11 -10 18 -10 8 0 8 3 -1 12 -18 18 -14 30 7 23 15 -4 20 1 25 25 5 27 9 30
28 24 21 -6 22 -5 8 11 -14 16 -13 17 9 10 21 -6 22 -5 16 17 -5 17 -4 19 4 9
8 -12 12 -13 26 -1 9 7 14 19 11 27 -3 8 2 13 14 13 15 0 20 7 20 25 0 15 5
25 13 24 24 -4 46 12 39 29 -5 14 -3 15 10 4 13 -10 17 -10 22 3 3 8 2 23 -1
33 -6 15 -5 15 10 3 9 -7 17 -17 17 -20z m-70 -35 c0 -3 -4 -8 -10 -11 -5 -3
-10 -1 -10 4 0 6 5 11 10 11 6 0 10 -2 10 -4z m280 -106 c19 -16 30 -29 23
-30 -6 0 -27 14 -45 30 -42 39 -23 39 22 0z m-105 10 c3 -5 1 -10 -4 -10 -6 0
-11 5 -11 10 0 6 2 10 4 10 3 0 8 -4 11 -10z m-475 -200 c0 -5 -5 -10 -11 -10
-5 0 -7 5 -4 10 3 6 8 10 11 10 2 0 4 -4 4 -10z m-449 -518 c-63 -64 -75 -72
-87 -60 -12 12 -5 23 51 79 36 36 67 64 69 62 2 -2 10 10 17 27 l14 31 5 -33
c5 -30 -1 -39 -69 -106z"/>
<path d="M12231 5175 c0 -5 8 -26 19 -45 11 -19 19 -30 19 -25 0 6 -8 26 -19
45 -11 19 -19 31 -19 25z"/>
<path d="M12290 5045 c0 -5 5 -17 10 -25 5 -8 10 -10 10 -5 0 6 -5 17 -10 25
-5 8 -10 11 -10 5z"/>
<path d="M7313 5003 c-13 -5 -19 -33 -7 -33 7 0 34 27 34 34 0 7 -10 7 -27 -1z"/>
<path d="M7354 4988 c-7 -12 22 -45 48 -54 10 -3 27 0 36 8 15 11 15 11 5 -3
-7 -9 -10 -19 -6 -23 4 -4 -5 -2 -21 4 -43 16 -41 6 2 -13 58 -27 80 -46 63
-56 -8 -5 -10 -14 -6 -21 5 -8 4 -11 -3 -6 -22 13 -23 -16 -1 -35 14 -12 36
-19 63 -18 23 0 36 3 29 5 -7 3 -10 11 -7 18 3 7 -4 21 -16 31 l-20 18 22 12
c17 8 27 9 37 1 11 -9 13 -6 6 14 -9 31 -38 54 -87 71 -20 6 -35 16 -32 20 3
5 -2 6 -11 3 -8 -4 -22 -1 -29 5 -10 8 -16 9 -21 1 -3 -5 2 -10 11 -10 10 0
15 -2 12 -5 -3 -4 -18 -3 -33 1 -25 6 -26 8 -11 19 15 12 15 13 -4 18 -11 3
-23 1 -26 -5z"/>
<path d="M1600 4945 c0 -16 27 -32 37 -21 7 7 -16 36 -28 36 -5 0 -9 -7 -9
-15z"/>
<path d="M12360 4885 c0 -5 5 -17 10 -25 5 -8 10 -10 10 -5 0 6 -5 17 -10 25
-5 8 -10 11 -10 5z"/>
<path d="M1626 4861 c-3 -5 1 -12 10 -15 22 -8 25 -4 9 11 -8 7 -16 9 -19 4z"/>
<path d="M1350 4830 c0 -13 18 -22 24 -11 3 5 -1 11 -9 15 -8 3 -15 1 -15 -4z"/>
<path d="M12270 4775 c0 -5 5 -17 10 -25 5 -8 10 -10 10 -5 0 6 -5 17 -10 25
-5 8 -10 11 -10 5z"/>
<path d="M1438 4764 c21 -10 13 -21 -19 -28 -27 -5 -30 -8 -19 -21 14 -17 35
-21 25 -5 -3 6 6 15 20 20 30 11 29 34 -1 37 -10 2 -13 0 -6 -3z"/>
<path d="M1340 4659 c11 -8 12 -12 3 -16 -7 -2 -13 -11 -13 -19 0 -17 -17 -19
-23 -1 -3 7 -6 5 -6 -5 -1 -24 21 -23 42 3 19 22 16 49 -5 49 -9 0 -9 -3 2
-11z"/>
<path d="M6857 4588 c-17 -13 -33 -88 -18 -88 5 0 8 -18 8 -39 0 -25 7 -46 18
-57 11 -12 14 -19 6 -22 -6 -2 -11 -8 -11 -13 0 -6 5 -7 11 -3 8 4 9 0 4 -15
-3 -11 -2 -21 3 -21 6 0 8 -8 5 -18 -5 -20 35 -114 65 -151 23 -28 49 -23 54
11 4 25 -13 128 -38 226 -16 67 -10 102 11 61 7 -13 23 -60 35 -104 24 -82 40
-114 40 -79 0 11 -4 24 -8 30 -5 5 -19 50 -31 99 -30 122 -39 141 -73 170 -33
28 -56 31 -81 13z"/>
<path d="M1211 4541 c-9 -6 -10 -11 -2 -15 6 -4 9 -12 6 -17 -13 -20 11 -7 28
16 17 24 17 25 0 25 -10 0 -24 -4 -32 -9z m29 -5 c0 -3 -4 -8 -10 -11 -5 -3
-10 -1 -10 4 0 6 5 11 10 11 6 0 10 -2 10 -4z"/>
<path d="M1032 4498 c2 -6 15 -18 29 -27 l24 -15 -24 27 c-26 29 -35 34 -29
15z"/>
<path d="M1126 4451 c-4 -5 -3 -16 0 -24 3 -8 1 -18 -5 -22 -6 -3 -11 1 -11
10 0 9 -4 13 -10 10 -15 -9 -12 -22 6 -29 26 -10 46 12 33 37 -10 17 -9 19 5
14 10 -4 15 -3 11 3 -8 12 -22 13 -29 1z"/>
<path d="M12430 4424 c0 -6 7 -19 16 -30 14 -18 14 -18 3 6 -14 31 -19 36 -19
24z"/>
<path d="M7824 4398 c-5 -7 -7 -27 -5 -45 2 -26 -1 -33 -16 -33 -15 0 -16 -2
-3 -11 12 -8 12 -12 2 -16 -23 -9 8 -33 44 -33 22 0 41 8 54 23 l21 22 -20 3
c-29 5 -27 40 2 52 12 5 16 9 8 9 -8 1 -11 4 -8 8 4 3 2 12 -4 20 -14 16 -65
17 -75 1z"/>
<path d="M12461 4365 c0 -5 8 -26 19 -45 14 -26 19 -30 19 -15 0 11 -8 31 -19
45 -11 14 -19 21 -19 15z"/>
<path d="M1015 4335 c-26 -25 -26 -45 -1 -45 20 0 40 27 26 35 -6 3 -7 11 -4
17 4 6 10 5 15 -3 6 -10 9 -10 9 -2 0 24 -21 23 -45 -2z m11 -32 c-10 -10 -19
5 -10 18 6 11 8 11 12 0 2 -7 1 -15 -2 -18z"/>
<path d="M860 4346 c0 -2 7 -9 15 -16 13 -11 14 -10 9 4 -5 14 -24 23 -24 12z"/>
<path d="M7431 4331 c-17 -11 -7 -41 14 -41 16 0 17 5 7 32 -5 12 -11 14 -21
9z"/>
<path d="M12520 4288 c1 -15 39 -87 40 -74 0 19 -24 86 -32 86 -4 0 -8 -6 -8
-12z"/>
<path d="M12636 4267 c3 -10 9 -15 12 -12 3 3 0 11 -7 18 -10 9 -11 8 -5 -6z"/>
<path d="M935 4250 c-3 -5 0 -10 7 -10 7 -1 0 -8 -15 -16 -39 -21 -27 -30 13
-9 26 13 29 19 19 31 -14 17 -16 17 -24 4z"/>
<path d="M12661 4215 c0 -5 6 -21 14 -35 8 -14 14 -20 14 -15 0 6 -6 21 -14
35 -8 14 -14 21 -14 15z"/>
<path d="M811 4124 c-20 -21 -22 -27 -10 -35 8 -5 17 -9 20 -9 12 0 40 50 34
60 -9 15 -18 12 -44 -16z m39 6 c0 -5 -5 -10 -11 -10 -5 0 -7 5 -4 10 3 6 8
10 11 10 2 0 4 -4 4 -10z m-20 -30 c0 -5 -4 -10 -9 -10 -6 0 -13 5 -16 10 -3
6 1 10 9 10 9 0 16 -4 16 -10z"/>
<path d="M725 4036 c-12 -8 -16 -19 -11 -31 5 -15 4 -16 -9 -5 -9 8 -15 8 -15
2 0 -19 19 -23 42 -11 21 11 22 13 3 19 -13 4 -15 9 -7 14 7 4 17 4 22 1 6 -3
10 -2 10 4 0 17 -16 21 -35 7z"/>
<path d="M622 3943 c1 -5 -4 -19 -11 -33 l-14 -25 27 24 c29 28 33 41 11 41
-8 0 -14 -3 -13 -7z"/>
<path d="M646 3907 c-11 -8 -17 -19 -15 -24 2 -6 12 0 22 13 20 27 19 30 -7
11z"/>
<path d="M422 3883 c6 -7 14 -13 18 -13 3 0 7 6 7 13 0 7 -8 13 -18 13 -13 0
-15 -3 -7 -13z"/>
<path d="M475 3889 c4 -5 -1 -19 -11 -30 -9 -10 -14 -19 -11 -19 9 0 47 42 47
52 0 4 -7 8 -16 8 -8 0 -12 -5 -9 -11z"/>
<path d="M555 3870 c-3 -5 -12 -7 -20 -3 -23 8 -51 -5 -37 -19 8 -8 16 -8 28
3 12 9 15 10 10 2 -10 -18 4 -16 26 4 19 17 26 5 8 -13 -7 -7 -4 -10 12 -8 13
1 24 3 26 3 1 1 -2 10 -8 21 -11 21 -35 27 -45 10z"/>
<path d="M0 3639 l0 -153 53 52 c29 29 58 52 65 52 7 0 10 4 7 10 -3 6 1 7 10
4 11 -5 14 -2 8 12 -5 13 -3 15 8 9 8 -4 -17 25 -56 65 -38 41 -76 80 -82 87
-11 12 -13 -15 -13 -138z"/>
<path d="M137 3713 c3 -7 6 -13 8 -13 2 0 5 6 8 13 3 8 -1 14 -8 14 -7 0 -11
-6 -8 -14z"/>
<path d="M12652 3670 c0 -22 -11 -80 -22 -128 -28 -110 -28 -108 -12 -104 8 1
11 -2 7 -8 -3 -5 6 -15 21 -20 35 -14 51 0 59 50 8 49 -5 204 -15 176 -5 -16
-9 -9 -18 27 -7 26 -14 47 -16 47 -2 0 -4 -18 -4 -40z"/>
<path d="M150 3583 c-20 -7 -50 -34 -50 -45 0 -4 7 -8 15 -8 8 0 15 -5 15 -11
0 -6 7 -9 15 -6 8 4 17 2 20 -3 4 -6 12 -10 18 -10 18 1 52 29 44 36 -4 4 -14
1 -24 -7 -14 -12 -16 -12 -11 1 6 17 -16 43 -28 32 -4 -4 -4 1 -1 11 4 9 5 17
4 16 -1 0 -9 -3 -17 -6z"/>
<path d="M210 3562 c0 -4 9 -13 20 -20 11 -7 20 -9 20 -4 0 4 -9 13 -20 20
-11 7 -20 9 -20 4z"/>
<path d="M2617 3444 c-20 -13 -37 -29 -37 -35 0 -6 -15 -23 -32 -40 -30 -27
-31 -29 -10 -29 12 0 22 5 22 11 0 5 5 7 12 3 6 -4 17 1 25 12 12 17 30 2 236
-201 422 -417 692 -682 752 -737 51 -48 57 -58 46 -72 -7 -8 -10 -20 -7 -25 4
-5 2 -12 -3 -15 -16 -10 -24 14 -10 30 11 13 -31 58 -291 312 -167 163 -397
388 -510 499 -182 178 -207 200 -221 187 -8 -8 -23 -14 -32 -14 -9 0 -16 -3
-16 -7 1 -5 54 -57 118 -118 64 -60 185 -176 269 -258 96 -93 157 -145 165
-141 6 4 9 4 5 -1 -10 -10 11 -37 23 -29 5 3 7 -1 5 -8 -5 -16 152 -161 165
-152 6 4 6 11 -2 20 -6 7 -15 11 -20 8 -5 -3 -6 2 -3 11 5 11 2 14 -12 8 -11
-4 -15 -3 -11 4 6 10 -29 49 -42 46 -3 0 -5 2 -4 7 1 4 -114 122 -255 262
-141 141 -266 266 -277 279 -27 34 160 -146 432 -415 159 -158 229 -234 225
-244 -4 -13 -7 -12 -12 3 -5 14 -8 16 -15 6 -9 -15 13 -33 29 -24 5 4 7 0 4
-8 -3 -8 5 -22 20 -33 14 -11 22 -13 17 -6 -5 9 -4 11 4 6 6 -4 9 -11 6 -15
-5 -8 207 -223 226 -229 5 -2 34 17 64 42 44 38 53 52 53 77 l-1 30 -27 -26
c-21 -21 -30 -24 -36 -13 -4 7 -4 10 1 6 9 -8 35 9 35 22 0 9 -937 941 -1026
1020 -7 6 -23 1 -47 -16z m8 -134 c10 -11 14 -20 9 -20 -5 0 -15 9 -22 20 -7
11 -11 20 -9 20 2 0 12 -9 22 -20z m426 -287 c13 -16 12 -17 -3 -4 -17 13 -22
21 -14 21 2 0 10 -8 17 -17z m59 -58 c19 -19 32 -35 29 -35 -3 0 -20 16 -39
35 -19 19 -32 35 -29 35 3 0 20 -16 39 -35z m135 -135 c33 -33 57 -60 54 -60
-2 0 -31 27 -64 60 -33 33 -57 60 -54 60 2 0 31 -27 64 -60z m135 -260 c24
-23 40 -43 37 -46 -3 -3 -15 4 -26 15 -12 12 -28 21 -36 21 -9 0 -12 6 -9 15
4 8 1 15 -5 15 -6 0 -11 5 -11 10 0 16 6 12 50 -30z m121 13 c13 -16 12 -17
-3 -4 -17 13 -22 21 -14 21 2 0 10 -8 17 -17z m89 -88 c35 -36 62 -65 59 -65
-2 0 -34 29 -69 65 -35 36 -62 65 -59 65 2 0 34 -29 69 -65z m-83 -46 c99 -96
110 -115 21 -36 -42 37 -81 67 -88 67 -6 0 -8 5 -5 10 3 6 -1 10 -10 10 -9 0
-13 5 -10 11 10 15 17 10 92 -62z"/>
<path d="M2715 3440 c10 -11 20 -20 23 -20 3 0 -3 9 -13 20 -10 11 -20 20 -23
20 -3 0 3 -9 13 -20z"/>
<path d="M12523 3344 c-17 -30 -27 -52 -22 -49 11 8 63 95 58 99 -2 2 -18 -21
-36 -50z"/>
<path d="M12451 3245 c-17 -20 -31 -38 -31 -40 0 -12 10 -2 40 35 39 49 33 53
-9 5z"/>
<path d="M10977 2374 c-8 -8 1 -24 14 -24 5 0 9 7 9 15 0 15 -12 20 -23 9z"/>
<path d="M12970 2320 c-19 -37 -19 -43 -6 -94 28 -105 35 -100 36 22 0 61 -2
112 -5 112 -2 0 -14 -18 -25 -40z"/>
<path d="M7875 2103 c-11 -3 -24 -10 -30 -15 -7 -7 -2 -8 15 -3 14 4 70 11
125 15 l100 7 -95 0 c-52 0 -104 -1 -115 -4z"/>
<path d="M7650 2000 c-9 -6 -10 -10 -3 -10 6 0 15 5 18 10 8 12 4 12 -15 0z"/>
<path d="M8156 1915 c-3 -9 -6 -29 -5 -43 0 -16 3 -21 6 -12 3 8 9 17 13 20 5
3 10 14 12 24 4 24 -17 33 -26 11z"/>
<path d="M8110 1854 c0 -8 5 -12 10 -9 6 3 10 10 10 16 0 5 -4 9 -10 9 -5 0
-10 -7 -10 -16z"/>
<path d="M8068 1813 c7 -3 16 -2 19 1 4 3 -2 6 -13 5 -11 0 -14 -3 -6 -6z"/>
<path d="M7932 1739 c-30 -9 -32 -12 -20 -27 12 -15 11 -16 -5 -3 -14 11 -21
11 -29 3 -15 -15 -32 -16 -23 -2 4 6 -1 7 -11 3 -11 -4 -13 -8 -6 -11 7 -2 0
-24 -21 -60 -87 -155 11 -332 183 -332 104 0 204 71 162 116 -19 21 -36 28
-70 27 -19 -1 -22 3 -17 21 4 11 3 17 -2 11 -15 -18 -57 -50 -49 -37 4 7 2 12
-6 12 -7 1 1 8 17 17 24 14 26 18 13 21 -18 3 -26 22 -10 22 4 0 8 16 8 35 0
21 -3 30 -8 22 -6 -9 -10 -9 -17 2 -8 13 -12 13 -27 0 -14 -11 -18 -11 -22 -1
-3 10 -7 10 -18 1 -19 -15 -8 -29 22 -29 13 0 24 -4 24 -10 0 -20 -49 -10 -61
12 -10 19 -8 25 15 45 36 31 73 29 108 -4 28 -27 39 -21 16 9 -16 20 -80 40
-101 32 -10 -3 -17 -1 -17 5 0 6 6 11 14 11 8 0 17 4 20 9 4 5 -4 7 -16 5 -13
-2 -17 -1 -9 2 10 5 6 10 -15 19 -27 12 -26 13 26 9 51 -3 49 -1 -8 12 -37 8
-20 28 29 35 l44 6 -40 1 c-22 0 -55 -4 -73 -9z m8 -229 c0 -13 -1 -13 -10 0
-5 8 -10 22 -10 30 0 13 1 13 10 0 5 -8 10 -22 10 -30z m37 -22 c-3 -7 -5 -2
-5 12 0 14 2 19 5 13 2 -7 2 -19 0 -25z"/>
<path d="M7988 1723 c7 -3 16 -2 19 1 4 3 -2 6 -13 5 -11 0 -14 -3 -6 -6z"/>
<path d="M8084 1718 c-4 -7 -4 -10 1 -6 4 4 17 2 28 -3 16 -9 17 -13 6 -20 -8
-5 -21 -8 -29 -8 -10 0 -8 3 5 9 13 6 15 9 5 9 -8 0 -21 -3 -28 -8 -11 -6 -10
-10 3 -15 11 -4 15 -13 12 -26 -11 -42 62 -50 84 -9 13 26 2 41 -24 34 -12 -2
-16 -2 -9 1 10 5 8 12 -9 30 -25 27 -35 29 -45 12z"/>
<path d="M8994 1065 c-9 -21 3 -45 21 -45 20 0 20 46 0 54 -9 3 -18 -1 -21 -9z"/>
</g>
</svg>
