<?xml version="1.0" standalone="no"?>
<!DOCTYPE svg PUBLIC "-//W3C//DTD SVG 20010904//EN"
 "http://www.w3.org/TR/2001/REC-SVG-20010904/DTD/svg10.dtd">
<svg version="1.0" xmlns="http://www.w3.org/2000/svg"
 width="537.000000pt" height="157.000000pt" viewBox="0 0 537.000000 157.000000"
 preserveAspectRatio="xMidYMid meet">

<g transform="translate(0.000000,157.000000) scale(0.100000,-0.100000)"
fill="#000000" stroke="none">
<path d="M2240 825 l0 -155 35 0 35 0 0 155 0 155 -35 0 -35 0 0 -155z"/>
<path d="M2530 825 l0 -155 35 0 35 0 0 75 c0 63 3 76 19 85 35 18 51 -12 51
-91 l0 -70 33 3 c32 3 32 3 35 63 6 116 -35 176 -106 155 l-32 -9 0 50 0 49
-35 0 -35 0 0 -155z"/>
<path d="M1450 815 l0 -145 35 0 35 0 0 60 0 60 45 0 45 0 0 -60 0 -60 35 0
35 0 0 145 0 145 -35 0 -35 0 0 -50 0 -50 -45 0 -45 0 0 50 0 50 -35 0 -35 0
0 -145z"/>
<path d="M2380 920 c0 -20 -5 -30 -15 -30 -10 0 -15 -10 -15 -30 0 -20 5 -30
15 -30 11 0 15 -18 17 -77 l3 -78 33 -3 32 -3 0 80 c0 74 2 81 20 81 16 0 20
7 20 30 0 23 -4 30 -20 30 -16 0 -20 7 -20 30 0 28 -3 30 -35 30 -32 0 -35 -2
-35 -30z"/>
<path d="M4770 920 c0 -23 -4 -30 -20 -30 -16 0 -20 -7 -20 -30 0 -23 4 -30
20 -30 18 0 20 -7 20 -81 l0 -80 33 3 32 3 3 78 c3 69 5 77 22 77 16 0 20 7
20 30 0 23 -4 30 -20 30 -16 0 -20 7 -20 30 0 28 -3 30 -35 30 -32 0 -35 -2
-35 -30z"/>
<path d="M1803 893 c-40 -8 -73 -59 -73 -111 1 -73 42 -112 119 -112 56 0 71
8 71 39 0 25 -3 27 -35 23 -41 -5 -85 4 -85 18 0 6 31 10 70 10 68 0 70 1 70
25 0 42 -29 85 -65 101 -19 8 -38 13 -42 13 -4 -1 -18 -4 -30 -6z m67 -78 c0
-3 -16 -5 -35 -5 -36 0 -48 16 -17 23 16 3 52 -9 52 -18z"/>
<path d="M2043 893 c-41 -8 -73 -59 -73 -115 0 -41 5 -54 28 -78 27 -26 34
-28 110 -28 l82 0 0 110 0 109 -42 -2 c-24 -1 -52 0 -63 3 -11 3 -30 3 -42 1z
m58 -63 c22 -12 27 -68 7 -88 -21 -21 -58 -14 -68 14 -14 35 -13 41 10 64 23
23 25 23 51 10z"/>
<path d="M3167 890 c-63 -19 -94 -76 -77 -141 14 -50 57 -79 118 -79 41 0 42
1 42 33 0 32 -1 33 -34 29 -28 -3 -37 1 -51 22 -30 45 9 94 64 79 18 -5 21 -1
21 26 0 20 -5 31 -14 31 -8 0 -20 2 -28 4 -7 2 -26 0 -41 -4z"/>
<path d="M3365 893 c-30 -7 -72 -51 -78 -83 -9 -40 10 -96 39 -119 20 -16 40
-19 104 -19 l80 0 0 109 0 110 -42 -2 c-24 -1 -52 0 -63 3 -11 3 -29 3 -40 1z
m59 -69 c19 -18 21 -65 4 -82 -18 -18 -56 -14 -68 7 -15 29 -12 49 10 71 24
24 34 25 54 4z"/>
<path d="M3667 893 c-4 -3 -29 -5 -57 -4 l-50 1 0 -110 0 -111 33 3 32 3 3 73
c3 72 3 73 32 79 26 5 30 10 30 39 0 32 -9 42 -23 27z"/>
<path d="M3793 893 c-32 -6 -72 -51 -79 -88 -13 -73 43 -135 125 -135 56 0 71
8 71 39 0 26 -2 26 -57 26 -36 0 -58 4 -60 13 -4 9 13 12 60 12 74 0 82 8 66
64 -14 51 -68 81 -126 69z m67 -78 c0 -3 -16 -5 -35 -5 -36 0 -48 16 -17 23
16 3 52 -9 52 -18z"/>
<path d="M4126 890 c-133 -40 -96 -230 42 -218 33 3 37 6 40 34 3 29 1 30 -30
26 -24 -3 -38 2 -52 17 -37 41 7 99 63 84 18 -5 21 -1 21 26 0 20 -5 31 -14
31 -8 0 -20 2 -28 4 -7 2 -26 0 -42 -4z"/>
<path d="M4311 887 c-36 -13 -71 -64 -71 -105 0 -63 57 -112 129 -112 56 0 71
8 71 39 0 26 -2 26 -57 26 -36 0 -58 4 -60 13 -4 9 13 12 61 12 l66 0 0 39 c0
40 -35 91 -64 91 -8 0 -20 2 -28 4 -7 3 -28 0 -47 -7z m79 -72 c0 -3 -16 -5
-35 -5 -36 0 -48 16 -17 23 16 3 52 -9 52 -18z"/>
<path d="M4607 894 c-3 -4 -31 -6 -62 -5 l-56 1 3 -108 3 -107 33 -3 32 -3 0
70 c0 50 4 74 16 85 36 36 54 8 54 -81 l0 -73 35 0 35 0 0 80 c0 93 -12 125
-53 140 -35 12 -32 12 -40 4z"/>
<path d="M4972 888 c-41 -11 -72 -59 -72 -110 0 -74 74 -121 164 -104 31 6 36
11 36 35 0 27 -1 28 -53 23 -40 -3 -56 0 -66 12 -12 14 -6 16 58 16 l71 0 0
35 c0 24 -8 44 -27 64 -32 34 -65 42 -111 29z m68 -69 c0 -5 -17 -9 -37 -9
-34 1 -36 2 -20 14 18 14 57 11 57 -5z"/>
<path d="M5267 894 c-3 -4 -31 -6 -62 -5 l-55 1 0 -110 0 -110 35 0 35 0 0 68
c0 70 10 92 42 92 14 0 18 8 18 35 0 36 -2 40 -13 29z"/>
<path d="M2760 883 c0 -4 16 -49 36 -100 37 -91 37 -92 20 -133 l-16 -41 37 3
37 3 53 135 c29 74 53 136 53 138 0 1 -16 2 -35 2 -32 0 -35 -3 -52 -50 -10
-27 -20 -50 -23 -50 -3 0 -14 23 -25 50 -18 46 -22 50 -52 50 -18 0 -33 -3
-33 -7z"/>
</g>
</svg>
